<?xml version="1.0" standalone="no"?>
<!DOCTYPE svg PUBLIC "-//W3C//DTD SVG 20010904//EN"
 "http://www.w3.org/TR/2001/REC-SVG-20010904/DTD/svg10.dtd">
<svg version="1.0" xmlns="http://www.w3.org/2000/svg"
 width="500.000000pt" height="500.000000pt" viewBox="0 0 500.000000 500.000000"
 preserveAspectRatio="xMidYMid meet">
<metadata>
Created by potrace 1.11, written by Peter Selinger 2001-2013
</metadata>
<g transform="translate(0.000000,500.000000) scale(0.100000,-0.100000)"
fill="#000000" stroke="none">
<path d="M2775 4853 c-98 -8 -297 -47 -324 -64 -36 -22 -45 -51 -62 -213 -14
-133 -18 -131 -44 19 -30 172 -61 218 -133 194 -88 -28 -642 -411 -642 -443 0
-8 13 -44 30 -80 16 -36 26 -66 21 -66 -4 0 -41 11 -81 25 -99 34 -123 33
-154 -7 -26 -35 -195 -298 -215 -335 -11 -21 -8 -24 39 -48 59 -30 63 -38 16
-30 -44 9 -73 -1 -87 -27 -15 -27 -38 -299 -39 -444 0 -131 13 -203 49 -276
l27 -53 64 4 63 3 -36 -43 c-48 -56 -48 -84 3 -256 l40 -136 3 -228 c4 -222
-3 -283 -17 -157 -19 166 -62 300 -108 332 -39 28 -67 21 -85 -21 -13 -33 -14
-54 -4 -168 12 -126 38 -271 60 -327 7 -20 7 -28 0 -28 -20 0 -69 62 -117 148
-71 128 -133 171 -177 122 -33 -37 -17 -113 55 -257 67 -135 67 -133 89 -374
12 -125 39 -206 110 -324 l49 -81 -64 -224 c-35 -124 -69 -236 -76 -250 -6
-14 -13 -34 -14 -45 -1 -11 -4 -38 -8 -60 -6 -38 -5 -41 36 -72 24 -17 73 -46
109 -63 l66 -33 7 -136 c3 -75 9 -180 13 -233 l6 -98 302 0 c247 0 304 3 308
14 10 26 -54 414 -79 479 -4 11 -1 17 7 17 8 -1 25 -23 38 -50 31 -65 100
-146 191 -226 88 -78 130 -106 185 -124 22 -7 47 -23 57 -35 28 -36 62 -39
125 -11 50 24 60 25 121 16 163 -23 332 -6 433 45 110 56 162 116 215 249 l33
81 108 28 c59 15 118 25 130 22 69 -16 13 -231 -108 -416 l-59 -89 150 0 150
0 0 98 c0 107 -17 188 -55 267 -17 37 -23 61 -19 85 3 19 1 47 -5 62 -14 36
-36 36 -178 2 l-108 -26 -135 16 c-74 8 -163 18 -197 22 -35 4 -68 12 -74 20
-9 12 -16 201 -7 210 5 5 219 -46 240 -57 12 -6 44 1 104 22 80 28 90 29 137
19 29 -7 122 -15 208 -17 122 -4 173 -2 239 11 169 35 282 111 342 234 45 91
43 158 -8 312 -37 108 -39 122 -39 230 1 72 8 145 19 195 35 156 88 328 122
394 101 193 45 402 -168 627 -179 189 -450 428 -614 540 -73 51 -75 51 -121
42 -40 -9 -48 -8 -60 8 -27 37 -5 151 46 234 21 34 28 80 14 94 -4 3 -8 14 -9
24 -2 9 -14 55 -28 101 -37 119 -48 199 -48 341 1 236 74 457 203 612 21 26
39 51 39 56 0 15 -200 60 -319 72 -98 9 -207 11 -296 3z m-525 -725 c29 -46
97 -126 149 -178 101 -100 299 -259 402 -322 89 -54 125 -56 264 -17 104 29
117 31 131 17 24 -23 0 -40 -103 -74 -75 -25 -104 -29 -198 -29 -108 0 -111 1
-197 41 -133 64 -225 129 -318 223 -86 87 -149 185 -175 275 -19 64 -31 53
-33 -31 -7 -328 -202 -637 -502 -792 -47 -25 -90 -52 -97 -60 -11 -14 -12 -13
-13 9 0 35 27 63 165 172 187 148 248 213 303 323 43 85 60 160 71 317 11 159
27 208 70 208 22 0 35 -14 81 -82z m1107 -896 c148 -104 251 -194 273 -239 25
-52 27 -140 4 -206 -18 -52 -89 -137 -143 -171 -99 -63 -280 -97 -399 -76
-168 29 -293 137 -342 298 -44 141 -12 237 109 324 29 21 364 126 406 127 6 0
47 -26 92 -57z m-932 -248 c-11 -8 -49 -36 -85 -63 -147 -109 -290 -263 -346
-374 -56 -110 -52 -232 9 -283 27 -23 38 -26 88 -22 46 3 91 21 245 95 232
113 276 126 397 121 79 -3 102 -8 160 -35 41 -20 88 -53 121 -86 62 -62 124
-173 107 -190 -8 -8 -20 0 -43 28 -120 149 -288 229 -430 205 -75 -12 -99 -22
-271 -110 -196 -99 -322 -130 -404 -99 -46 17 -92 69 -108 123 -20 65 -19 91
5 168 52 169 230 352 479 494 75 43 115 58 76 28z m-740 -133 c9 -31 112 -189
156 -242 40 -48 40 -48 24 -79 l-16 -31 -105 145 c-58 80 -115 151 -126 157
-35 19 -100 4 -130 -30 -29 -32 -53 -102 -45 -132 6 -23 -16 -25 -37 -3 -20
20 -21 76 -1 114 17 33 87 84 143 105 20 7 58 14 84 14 37 1 48 -3 53 -18z
m1925 -195 c0 -2 -7 -7 -16 -10 -8 -3 -12 -2 -9 4 6 10 25 14 25 6z m-160
-110 c0 -2 -7 -7 -16 -10 -8 -3 -12 -2 -9 4 6 10 25 14 25 6z m-1920 -212 c20
-45 20 -48 3 -130 -10 -46 -21 -84 -25 -84 -5 0 -7 58 -6 130 2 71 4 130 6
130 1 0 12 -21 22 -46z m1270 10 c82 -24 148 -72 241 -175 124 -137 148 -158
202 -174 72 -21 136 -5 191 49 24 22 49 51 57 62 8 12 32 33 53 48 80 54 213
26 322 -68 l41 -35 -33 -120 c-18 -66 -38 -148 -45 -181 -6 -33 -16 -60 -20
-60 -5 0 -9 7 -9 15 0 22 -95 93 -175 131 -117 56 -230 55 -292 -2 l-28 -25
29 6 c26 6 28 4 22 -17 -42 -147 -27 -264 40 -317 41 -32 123 -29 164 5 50 42
110 182 110 256 0 15 3 28 6 28 4 0 31 -20 60 -45 28 -25 57 -45 63 -45 14 0
14 5 -9 -147 -29 -192 -54 -246 -209 -452 -110 -146 -158 -188 -286 -251 -210
-103 -233 -110 -315 -93 -250 50 -419 135 -620 312 l-45 39 48 51 c68 72 92
129 91 216 0 91 -26 156 -115 291 -111 168 -184 334 -205 462 l-6 38 57 13
c32 7 123 47 204 88 229 116 294 132 411 97z m624 -272 c-17 -27 -86 -62 -123
-62 -43 0 -109 31 -145 69 l-27 28 62 89 c34 49 73 104 87 123 l26 33 65 -131
c53 -106 64 -135 55 -149z m726 123 c-31 -104 -94 -164 -161 -151 -19 3 -59
26 -89 52 -150 124 -297 145 -400 57 -41 -35 -43 -36 -56 -18 -20 27 -19 30
26 68 99 84 253 79 380 -13 159 -116 249 -105 288 34 12 44 18 54 20 36 2 -13
-1 -42 -8 -65z m-2044 -82 c41 -186 87 -293 194 -458 97 -147 129 -220 130
-291 0 -81 -26 -142 -89 -205 -94 -93 -162 -117 -436 -153 -60 -8 -111 -14
-112 -13 0 1 -3 16 -5 32 l-3 30 100 7 c188 12 325 59 394 133 89 96 76 202
-53 435 -93 168 -136 257 -136 281 0 13 -6 30 -14 38 -16 18 -36 106 -36 156
0 32 2 35 30 35 24 0 31 -5 36 -27z m1925 -244 c-50 -192 -62 -269 -62 -387 1
-83 5 -107 42 -214 35 -102 41 -128 37 -181 -5 -79 -29 -129 -93 -193 -97 -98
-240 -146 -440 -148 -128 -1 -255 11 -255 23 0 5 64 11 143 14 213 9 340 42
449 118 116 79 144 171 90 292 -61 134 -63 193 -12 437 71 342 82 379 109 388
14 5 27 8 29 7 2 -2 -15 -72 -37 -156z m-445 -54 c72 -21 78 -31 64 -102 -29
-136 -86 -226 -155 -239 -111 -20 -171 104 -134 277 17 77 37 93 113 85 33 -4
84 -13 112 -21z m-1520 -872 c-4 -31 -19 -79 -34 -107 -22 -41 -33 -52 -62
-58 -48 -10 -119 1 -129 21 -12 22 -45 161 -40 166 6 5 195 33 238 34 l34 1
-7 -57z m-452 -223 c35 -13 36 -50 2 -50 -27 0 -56 -33 -56 -62 0 -32 37 -58
80 -58 52 0 101 21 167 70 60 46 63 47 63 21 0 -33 -41 -71 -119 -111 -196
-98 -389 -101 -580 -10 -97 47 -141 83 -141 117 0 13 3 23 6 23 4 0 28 -16 55
-36 92 -67 237 -101 297 -70 55 29 57 94 3 112 l-34 11 21 21 c48 48 118 4
124 -77 4 -64 28 -66 28 -3 0 40 6 57 26 81 30 36 25 34 58 21z m319 -133 c36
-82 142 -222 204 -269 108 -82 232 -115 428 -116 180 -1 275 25 349 96 36 34
96 141 96 170 0 14 56 17 65 2 10 -16 -63 -146 -112 -200 -90 -100 -207 -131
-421 -112 -169 15 -245 15 -259 1 -8 -8 -13 -5 -18 11 -5 15 -31 33 -84 57
-147 68 -222 136 -296 269 l-28 51 23 31 c14 19 21 39 17 51 -11 43 9 19 36
-42z"/>
<path d="M2675 2074 c-93 -23 -310 -142 -291 -161 6 -6 40 4 106 31 13 5 14
-6 12 -77 -2 -45 1 -102 7 -125 15 -56 63 -109 111 -123 123 -37 270 110 287
286 3 36 8 65 12 65 3 0 29 -23 57 -51 29 -29 58 -49 65 -46 9 3 -7 25 -49 65
-95 93 -239 154 -317 136z m178 -70 l39 -19 -4 -70 c-7 -145 -119 -285 -228
-285 -40 0 -83 22 -104 54 -40 61 -55 195 -29 261 6 18 45 40 118 67 61 23
152 19 208 -8z"/>
<path d="M2739 1946 c12 -30 -6 -67 -42 -84 -22 -11 -31 -10 -59 4 -18 9 -30
13 -27 10 4 -4 3 -23 -1 -42 -12 -51 5 -101 40 -119 37 -19 38 -19 42 8 2 18
9 22 35 22 29 0 35 5 48 38 28 69 16 149 -25 175 -18 11 -19 10 -11 -12z m35
-78 c7 -55 -4 -79 -18 -42 -6 17 -26 10 -26 -9 0 -7 4 -6 10 3 9 13 10 13 11
0 1 -8 1 -19 0 -23 -1 -5 3 -6 9 -2 12 8 13 -5 1 -24 -5 -8 -16 -11 -30 -6
-12 3 -18 11 -15 17 4 7 2 8 -4 4 -12 -7 -15 1 -15 36 0 10 -3 15 -8 13 -8 -6
-5 -38 6 -55 3 -5 0 -19 -8 -31 l-15 -20 -16 23 c-9 12 -16 17 -16 11 0 -7 5
-15 10 -18 6 -3 10 -11 10 -18 0 -6 -7 -4 -17 6 -11 10 -17 36 -19 71 -2 55
-2 55 22 44 18 -8 31 -8 49 0 35 16 40 15 24 -5 -13 -16 -12 -17 3 -4 10 7 16
17 13 21 -3 4 2 13 10 20 8 7 15 22 15 33 0 37 8 13 14 -45z"/>
<path d="M2753 1865 c0 -8 4 -12 9 -9 5 3 6 10 3 15 -9 13 -12 11 -12 -6z"/>
<path d="M2637 1824 c-8 -9 34 -75 44 -68 5 3 9 7 9 10 0 3 -5 2 -12 -2 -8 -5
-9 -2 -5 10 5 11 3 15 -5 10 -8 -5 -9 -2 -5 9 4 10 2 16 -6 14 -7 -1 -11 4 -9
11 2 13 -1 15 -11 6z"/>
<path d="M2730 1791 c0 -6 4 -13 10 -16 6 -3 7 1 4 9 -7 18 -14 21 -14 7z"/>
<path d="M2940 1492 c0 -36 101 -74 164 -62 54 10 39 26 -23 25 -46 0 -66 5
-90 23 -31 23 -51 28 -51 14z"/>
<path d="M2634 1419 c-13 -22 -16 -149 -5 -196 18 -73 75 -183 120 -234 24
-27 62 -56 93 -70 46 -21 67 -24 163 -23 241 2 370 78 445 262 17 42 36 88 43
102 6 14 11 29 12 34 0 6 -89 10 -220 11 -178 1 -246 5 -355 23 -179 30 -204
38 -244 72 -38 33 -42 35 -52 19z m130 -84 c102 -31 346 -59 519 -59 92 -1
167 -3 167 -6 0 -3 -15 -30 -32 -60 -37 -60 -58 -74 -58 -38 0 13 -4 28 -8 33
-4 6 -86 10 -207 11 -166 0 -215 4 -290 21 -49 12 -98 24 -107 28 -13 5 -19 0
-24 -22 -12 -55 -16 -63 -25 -58 -13 8 -11 95 2 134 6 17 12 31 12 31 1 0 24
-7 51 -15z m136 -132 c85 -15 100 -21 145 -58 55 -46 104 -130 87 -147 -6 -6
-44 -9 -90 -7 -74 4 -84 7 -112 34 -30 29 -32 29 -46 11 -7 -11 -17 -34 -20
-53 -4 -19 -12 -33 -21 -33 -20 0 -104 88 -127 132 -17 33 -17 38 -3 52 8 9
19 30 22 48 10 47 14 51 44 44 14 -3 69 -13 121 -23z m313 -240 c-3 -7 -21
-17 -41 -23 -51 -14 -211 -24 -257 -16 -35 7 -37 9 -31 38 8 41 11 43 38 24
17 -12 48 -16 134 -16 99 0 113 2 130 21 17 19 19 19 25 2 3 -10 4 -24 2 -30z"/>
<path d="M3530 1748 c0 -13 -7 -34 -16 -47 -13 -19 -24 -22 -55 -19 -42 4 -52
-6 -18 -17 24 -8 79 12 79 29 0 6 5 4 11 -4 9 -13 10 -12 5 3 -3 9 -1 17 4 17
5 0 7 7 4 15 -4 8 -1 15 5 15 7 0 10 -14 7 -37 -3 -21 -5 -49 -5 -62 -1 -20
-3 -21 -16 -11 -11 9 -12 16 -5 25 7 8 5 12 -4 12 -8 0 -13 -8 -11 -19 4 -19
-10 -25 -18 -8 -3 6 -4 5 -3 -2 1 -6 -6 -20 -16 -30 -20 -20 -33 -24 -22 -6 5
7 3 8 -6 3 -10 -6 -12 -4 -7 8 3 9 2 19 -4 22 -5 4 -7 11 -4 16 4 5 1 9 -6 9
-16 0 -4 -58 18 -82 16 -17 17 -17 27 3 18 35 42 46 68 30 13 -7 20 -11 17 -7
-4 4 -1 28 6 54 13 50 8 79 -19 101 -14 12 -16 10 -16 -11z"/>
<path d="M3466 1633 c-6 -14 -5 -15 5 -6 7 7 10 15 7 18 -3 3 -9 -2 -12 -12z"/>
</g>
</svg>
